<?xml version="1.0" encoding="utf-8"?>
<!-- Generator: Adobe Illustrator 17.0.0, SVG Export Plug-In . SVG Version: 6.00 Build 0)  -->
<!DOCTYPE svg PUBLIC "-//W3C//DTD SVG 1.1//EN" "http://www.w3.org/Graphics/SVG/1.1/DTD/svg11.dtd">
<svg version="1.1" id="Layer_1" xmlns="http://www.w3.org/2000/svg" xmlns:xlink="http://www.w3.org/1999/xlink" x="0px" y="0px"
	 width="400px" height="400px" viewBox="0 0 400 400" enable-background="new 0 0 400 400" xml:space="preserve">
<symbol  id="facebook" viewBox="-6.162 -13.223 12.324 26.446">
	<path fill="#F2F2F2" d="M2.038,4.557v2.279c0,0.342,0.016,0.607,0.048,0.794c0.032,0.188,0.104,0.372,0.217,0.554
		c0.112,0.182,0.294,0.307,0.546,0.377C3.1,8.631,3.435,8.666,3.852,8.666h2.278v4.557H2.488c-2.108,0-3.622-0.5-4.542-1.5
		c-0.92-1-1.38-2.474-1.38-4.421V4.557h-2.728V0h2.728v-13.223h5.472V0h3.643l0.481,4.557H2.038z"/>
</symbol>
<g>
	<rect x="19.422" y="340.5" fill="#E6E6E6" width="55.5" height="10.5"/>
	<rect x="19.422" y="379.5" fill="#E6E6E6" width="55.5" height="10.5"/>
	<rect x="19.422" y="360" fill="#E6E6E6" width="55.5" height="10.5"/>
</g>
<g>
	<path fill="#E6E6E6" d="M72.262,14.072c-1.467-1.467-3.225-2.201-5.273-2.201H23.665c-2.049,0-3.806,0.734-5.273,2.201
		s-2.201,3.225-2.201,5.273v43.324c0,2.048,0.733,3.806,2.201,5.273c1.467,1.467,3.225,2.201,5.273,2.201h43.324
		c2.048,0,3.806-0.734,5.273-2.201c1.467-1.467,2.2-3.225,2.2-5.273V19.345C74.462,17.296,73.729,15.539,72.262,14.072z
		 M37.114,32.869c2.289-2.213,5.039-3.32,8.251-3.32c3.237,0,6,1.107,8.289,3.32c2.289,2.213,3.433,4.888,3.433,8.024
		c0,3.136-1.145,5.811-3.433,8.023c-2.289,2.213-5.052,3.32-8.289,3.32c-3.212,0-5.962-1.107-8.251-3.32
		c-2.289-2.213-3.434-4.887-3.434-8.023C33.681,37.757,34.825,35.083,37.114,32.869z M67.862,61.114c0,0.657-0.228,1.207-0.683,1.65
		c-0.456,0.443-0.999,0.664-1.632,0.664H24.993c-0.657,0-1.208-0.221-1.65-0.664c-0.443-0.442-0.664-0.993-0.664-1.65V36.53h5.349
		c-0.506,1.593-0.759,3.25-0.759,4.97c0,4.857,1.77,8.998,5.311,12.425c3.541,3.427,7.803,5.141,12.785,5.141
		c3.288,0,6.323-0.785,9.106-2.352c2.782-1.569,4.981-3.699,6.601-6.393c1.619-2.694,2.428-5.634,2.428-8.821
		c0-1.72-0.254-3.376-0.759-4.97h5.122L67.862,61.114L67.862,61.114z M67.862,27.236c0,0.733-0.253,1.353-0.759,1.859
		c-0.506,0.506-1.125,0.759-1.859,0.759h-6.601c-0.733,0-1.353-0.253-1.859-0.759c-0.506-0.506-0.759-1.125-0.759-1.859v-6.259
		c0-0.708,0.253-1.321,0.759-1.84c0.506-0.518,1.126-0.778,1.859-0.778h6.601c0.734,0,1.353,0.259,1.859,0.778
		c0.507,0.519,0.759,1.132,0.759,1.84V27.236z"/>
</g>
<g>
	
		<use xlink:href="#facebook"  width="12.324" height="26.446" x="-6.162" y="-13.223" transform="matrix(1.9217 0 0 -1.9217 44.1715 120.6641)" overflow="visible"/>
</g>
<g>
	<path fill="#E6E6E6" d="M67.937,191.53c0.034,0.306,0.051,0.765,0.051,1.378c0,2.858-0.417,5.723-1.25,8.597
		c-0.833,2.874-2.109,5.629-3.826,8.266c-1.717,2.636-3.767,4.966-6.147,6.989c-2.382,2.023-5.238,3.64-8.572,4.846
		c-3.333,1.209-6.905,1.812-10.714,1.812c-5.918,0-11.394-1.599-16.429-4.796c0.817,0.101,1.667,0.153,2.551,0.153
		c4.932,0,9.371-1.531,13.317-4.592c-2.313-0.034-4.379-0.747-6.199-2.143c-1.82-1.395-3.087-3.163-3.801-5.306
		c0.884,0.136,1.547,0.203,1.99,0.203c0.748,0,1.616-0.135,2.602-0.407c-2.483-0.477-4.575-1.709-6.276-3.699
		c-1.701-1.99-2.551-4.26-2.551-6.811v-0.102c1.802,0.85,3.503,1.292,5.102,1.326c-3.095-2.075-4.643-5.051-4.643-8.929
		c0-1.905,0.493-3.707,1.479-5.408c2.687,3.3,5.953,5.935,9.796,7.908s7.959,3.079,12.347,3.317
		c-0.17-0.646-0.255-1.463-0.255-2.449c0-2.96,1.046-5.485,3.137-7.577c2.092-2.092,4.618-3.138,7.577-3.138
		c3.13,0,5.732,1.123,7.807,3.368c2.347-0.442,4.627-1.31,6.837-2.602c-0.85,2.618-2.432,4.608-4.744,5.969
		c2.21-0.307,4.268-0.885,6.172-1.735C71.866,188.145,70.079,189.998,67.937,191.53z"/>
</g>
<g>
	<g>
		<path fill="#E6E6E6" d="M50.299,294.39c-0.44-0.59-0.926-1.138-1.457-1.644c-0.531-0.506-1.063-0.968-1.594-1.383
			c-0.531-0.415-1.017-0.814-1.457-1.196c-0.44-0.382-0.797-0.781-1.071-1.196c-0.274-0.415-0.411-0.839-0.411-1.271
			c0-0.598,0.191-1.159,0.573-1.682c0.382-0.523,0.847-1.03,1.395-1.52c0.548-0.49,1.096-1.026,1.644-1.607
			c0.548-0.582,1.013-1.35,1.395-2.305c0.382-0.955,0.573-2.047,0.573-3.276c0-1.462-0.324-2.865-0.972-4.211
			c-0.648-1.346-1.561-2.392-2.741-3.139h3.364l3.363-1.969H42.014c-1.545,0-3.098,0.166-4.659,0.499
			c-2.309,0.515-4.252,1.69-5.83,3.525c-1.578,1.835-2.367,3.916-2.367,6.241c0,2.458,0.885,4.502,2.654,6.129
			c1.769,1.628,3.891,2.442,6.366,2.442c0.498,0,1.08-0.042,1.744-0.124c-0.033,0.133-0.091,0.311-0.174,0.535
			c-0.083,0.224-0.15,0.403-0.199,0.536c-0.05,0.133-0.091,0.294-0.124,0.486c-0.033,0.191-0.05,0.387-0.05,0.586
			c0,1.096,0.531,2.334,1.594,3.713c-1.262,0.034-2.508,0.146-3.737,0.337c-1.229,0.191-2.516,0.49-3.862,0.897
			c-1.345,0.407-2.55,0.997-3.613,1.769c-1.063,0.772-1.86,1.69-2.392,2.753c-0.615,1.229-0.922,2.35-0.922,3.364
			c0,1.113,0.249,2.122,0.747,3.027c0.498,0.905,1.138,1.644,1.918,2.217c0.781,0.573,1.682,1.055,2.703,1.446
			c1.021,0.39,2.035,0.668,3.039,0.835c1.005,0.166,1.997,0.249,2.977,0.249c4.451,0,7.94-1.088,10.464-3.264
			c2.325-2.027,3.488-4.369,3.488-7.027c0-0.947-0.137-1.831-0.411-2.654C51.096,295.685,50.739,294.979,50.299,294.39z
			 M40.694,285.333c-0.847,0-1.653-0.216-2.417-0.648c-0.764-0.432-1.412-0.993-1.943-1.682c-0.531-0.689-0.996-1.466-1.395-2.33
			c-0.398-0.864-0.693-1.727-0.884-2.591c-0.191-0.864-0.287-1.686-0.287-2.467c0-1.594,0.424-2.965,1.271-4.111
			c0.847-1.146,2.043-1.719,3.588-1.719c1.096,0,2.089,0.34,2.977,1.021c0.889,0.681,1.586,1.545,2.093,2.591
			c0.506,1.046,0.897,2.13,1.171,3.251c0.274,1.121,0.411,2.18,0.411,3.177c0,1.661-0.361,2.995-1.084,4
			C43.472,284.831,42.305,285.333,40.694,285.333z M47.583,304.044c-0.457,0.781-1.075,1.391-1.856,1.831
			c-0.781,0.44-1.615,0.764-2.504,0.972c-0.889,0.208-1.823,0.312-2.803,0.312c-1.063,0-2.118-0.125-3.164-0.374
			c-1.046-0.249-2.047-0.628-3.002-1.134c-0.955-0.506-1.728-1.204-2.317-2.093c-0.59-0.888-0.884-1.898-0.884-3.027
			c0-0.996,0.224-1.885,0.673-2.666s1.022-1.404,1.719-1.868c0.698-0.465,1.511-0.847,2.442-1.146
			c0.93-0.299,1.827-0.507,2.691-0.623c0.864-0.117,1.744-0.174,2.641-0.174c0.548,0,0.964,0.017,1.246,0.05
			c0.1,0.067,0.353,0.241,0.76,0.523c0.407,0.283,0.681,0.474,0.822,0.573c0.141,0.099,0.398,0.291,0.772,0.573
			c0.374,0.283,0.639,0.494,0.797,0.635c0.157,0.141,0.386,0.353,0.685,0.635c0.299,0.283,0.519,0.527,0.66,0.735
			c0.141,0.208,0.316,0.461,0.523,0.76c0.208,0.299,0.353,0.586,0.436,0.86c0.083,0.274,0.162,0.573,0.236,0.897
			c0.075,0.324,0.112,0.661,0.112,1.009C48.268,302.35,48.04,303.263,47.583,304.044z"/>
		<polygon fill="#E6E6E6" points="61.523,274.37 61.523,267.991 58.334,267.991 58.334,274.37 51.956,274.37 51.956,277.559 
			58.334,277.559 58.334,283.937 61.523,283.937 61.523,277.559 67.901,277.559 67.901,274.37 		"/>
	</g>
</g>
</svg>
