<?xml version="1.0" encoding="utf-8"?>
<!-- Generator: Adobe Illustrator 17.0.0, SVG Export Plug-In . SVG Version: 6.00 Build 0)  -->
<!DOCTYPE svg PUBLIC "-//W3C//DTD SVG 1.1//EN" "http://www.w3.org/Graphics/SVG/1.1/DTD/svg11.dtd">
<svg version="1.1" id="Layer_1" xmlns="http://www.w3.org/2000/svg" xmlns:xlink="http://www.w3.org/1999/xlink" x="0px" y="0px"
	 width="400px" height="400px" viewBox="0 0 400 400" enable-background="new 0 0 400 400" xml:space="preserve">
<g>
	<path d="M40.262,82.807V48.498h-5.824V38.306h5.824v-1.729c0-5.369,1.638-11.284,5.642-14.924
		c3.458-3.276,8.282-4.459,12.286-4.459c3.094,0,5.46,0.363,7.372,0.909L65.015,28.75c-1.183-0.363-2.639-0.637-4.459-0.637
		c-4.55,0-6.461,3.549-6.461,7.917v2.275h8.918v10.192h-8.827v34.309H40.262z"/>
</g>
<g>
	<path d="M155.407,17.093v14.42h11.227v11.536h-11.227v18.23c0,6.077,1.442,8.858,6.18,8.858c1.957,0,3.502-0.206,4.635-0.412
		l0.103,11.845c-2.06,0.824-5.768,1.339-10.197,1.339c-5.047,0-9.27-1.751-11.742-4.326c-2.884-2.987-4.326-7.828-4.326-14.935
		V43.048h-6.695V31.512h6.695V20.594L155.407,17.093z"/>
</g>
<g>
	<path d="M272.274,19.086c-0.18,2.79-0.359,6.48-0.359,13.049v24.569c0,8.459-1.71,15.389-6.66,19.799
		c-4.859,4.14-11.43,5.399-17.909,5.399c-5.76,0-11.879-1.17-15.839-3.42l2.699-10.349c2.79,1.62,7.65,3.33,12.78,3.33
		c6.479,0,11.429-3.51,11.429-11.609v-2.88h-0.18c-2.609,3.69-6.84,5.76-11.879,5.76c-10.89,0-18.63-8.82-18.63-21.509
		c0-14.129,9.18-23.129,19.979-23.129c6.029,0,9.81,2.61,12.06,6.209h0.18l0.45-5.22H272.274z M258.235,36.995
		c0-0.9-0.09-1.8-0.27-2.52c-0.99-3.6-3.601-6.03-7.38-6.03c-4.95,0-9,4.5-9,12.509c0,6.57,3.24,11.7,9,11.7
		c3.51,0,6.3-2.34,7.199-5.58c0.36-0.99,0.45-2.43,0.45-3.6V36.995z"/>
</g>
<rect x="313" y="17" width="74" height="14"/>
<rect x="313" y="69" width="74" height="14"/>
<rect x="313" y="43" width="74" height="14"/>
</svg>
