<?xml version="1.0" encoding="utf-8"?>
<!-- Generator: Adobe Illustrator 17.0.0, SVG Export Plug-In . SVG Version: 6.00 Build 0)  -->
<!DOCTYPE svg PUBLIC "-//W3C//DTD SVG 1.1//EN" "http://www.w3.org/Graphics/SVG/1.1/DTD/svg11.dtd">
<svg version="1.1" id="Layer_1" xmlns="http://www.w3.org/2000/svg" xmlns:xlink="http://www.w3.org/1999/xlink" x="0px" y="0px"
	 width="100px" height="200px" viewBox="0 0 100 200" enable-background="new 0 0 100 200" xml:space="preserve">
<symbol  id="facebook" viewBox="-6.162 -13.223 12.324 26.446">
	<path fill="#F2F2F2" d="M2.038,4.557v2.279c0,0.342,0.016,0.607,0.048,0.794C2.118,7.818,2.19,8.002,2.303,8.184
		c0.112,0.182,0.294,0.307,0.546,0.377C3.1,8.631,3.435,8.666,3.852,8.666H6.13v4.557H2.488c-2.108,0-3.622-0.5-4.542-1.5
		s-1.38-2.474-1.38-4.421V4.557h-2.728V0h2.728v-13.223h5.472V0h3.643l0.481,4.557H2.038z"/>
</symbol>
<g>
	<rect x="4.976" y="85.366" fill="#E6E6E6" width="10.037" height="1.899"/>
	<rect x="4.976" y="92.419" fill="#E6E6E6" width="10.037" height="1.899"/>
	<rect x="4.976" y="88.893" fill="#E6E6E6" width="10.037" height="1.899"/>
</g>
<g>
	<path fill="#E6E6E6" d="M15.444,4.284c-0.297-0.297-0.652-0.445-1.067-0.445H5.613c-0.414,0-0.77,0.148-1.067,0.445
		S4.101,4.937,4.101,5.351v8.765c0,0.414,0.148,0.77,0.445,1.067c0.297,0.297,0.652,0.445,1.067,0.445h8.765
		c0.414,0,0.77-0.148,1.067-0.445s0.445-0.652,0.445-1.067V5.351C15.889,4.936,15.741,4.581,15.444,4.284z M8.333,8.087
		c0.463-0.448,1.019-0.672,1.669-0.672c0.655,0,1.214,0.224,1.677,0.672s0.695,0.989,0.695,1.623s-0.232,1.176-0.695,1.623
		c-0.463,0.448-1.022,0.672-1.677,0.672c-0.65,0-1.206-0.224-1.669-0.672S7.639,10.345,7.639,9.71
		C7.639,9.076,7.87,8.535,8.333,8.087z M14.554,13.801c0,0.133-0.046,0.244-0.138,0.334c-0.092,0.09-0.202,0.134-0.33,0.134H5.881
		c-0.133,0-0.244-0.045-0.334-0.134s-0.134-0.201-0.134-0.334V8.828h1.082C6.393,9.15,6.342,9.485,6.342,9.833
		c0,0.983,0.358,1.82,1.074,2.514c0.716,0.693,1.579,1.04,2.586,1.04c0.665,0,1.279-0.159,1.842-0.476
		c0.563-0.317,1.008-0.748,1.335-1.293c0.328-0.545,0.491-1.14,0.491-1.784c0-0.348-0.051-0.683-0.154-1.005h1.036L14.554,13.801
		L14.554,13.801z M14.554,6.947c0,0.148-0.051,0.274-0.154,0.376c-0.102,0.102-0.228,0.154-0.376,0.154h-1.335
		c-0.148,0-0.274-0.051-0.376-0.154c-0.102-0.102-0.153-0.228-0.153-0.376V5.681c0-0.143,0.051-0.267,0.153-0.372
		s0.228-0.157,0.376-0.157h1.335c0.148,0,0.274,0.052,0.376,0.157s0.154,0.229,0.154,0.372V6.947z"/>
</g>
<g>
	
		<use xlink:href="#facebook"  width="12.324" height="26.446" x="-6.162" y="-13.223" transform="matrix(0.4455 0 0 -0.4455 9.557 30.0833)" overflow="visible"/>
</g>
<g>
	<path fill="#E6E6E6" d="M14.88,47.491c0.008,0.072,0.012,0.18,0.012,0.324c0,0.672-0.098,1.347-0.294,2.023s-0.496,1.324-0.9,1.945
		c-0.404,0.62-0.886,1.168-1.446,1.644s-1.232,0.856-2.017,1.14c-0.784,0.284-1.625,0.426-2.521,0.426
		c-1.392,0-2.681-0.376-3.865-1.128c0.192,0.024,0.392,0.036,0.6,0.036c1.16,0,2.205-0.36,3.133-1.08
		c-0.544-0.008-1.03-0.176-1.458-0.504c-0.428-0.328-0.726-0.744-0.894-1.248c0.208,0.032,0.364,0.048,0.468,0.048
		c0.176,0,0.38-0.032,0.612-0.096c-0.584-0.112-1.076-0.402-1.476-0.87c-0.4-0.468-0.6-1.002-0.6-1.602v-0.024
		c0.424,0.2,0.824,0.304,1.2,0.312c-0.728-0.488-1.092-1.188-1.092-2.101c0-0.448,0.116-0.872,0.348-1.272
		c0.632,0.776,1.401,1.396,2.305,1.861c0.904,0.464,1.873,0.724,2.905,0.78c-0.04-0.152-0.06-0.344-0.06-0.576
		c0-0.696,0.246-1.29,0.738-1.783c0.492-0.492,1.086-0.738,1.783-0.738c0.736,0,1.349,0.264,1.837,0.792
		c0.552-0.104,1.089-0.308,1.609-0.612c-0.2,0.616-0.572,1.084-1.116,1.404c0.52-0.072,1.004-0.208,1.452-0.408
		C15.805,46.695,15.384,47.131,14.88,47.491z"/>
</g>
<g>
	<g>
		<path fill="#E6E6E6" d="M10.627,71.452c-0.089-0.119-0.187-0.23-0.295-0.333c-0.108-0.102-0.215-0.196-0.323-0.28
			s-0.206-0.165-0.295-0.242c-0.089-0.077-0.161-0.158-0.217-0.242c-0.055-0.084-0.083-0.17-0.083-0.257
			c0-0.121,0.039-0.234,0.116-0.34c0.077-0.106,0.171-0.208,0.282-0.307c0.111-0.099,0.222-0.207,0.333-0.325
			s0.205-0.273,0.282-0.466s0.116-0.414,0.116-0.663c0-0.296-0.066-0.58-0.197-0.852c-0.131-0.272-0.316-0.484-0.554-0.635h0.68
			l0.68-0.398H8.951c-0.312,0-0.627,0.034-0.942,0.101c-0.467,0.104-0.86,0.342-1.179,0.713c-0.319,0.371-0.479,0.792-0.479,1.263
			c0,0.497,0.179,0.911,0.537,1.24c0.358,0.329,0.787,0.494,1.288,0.494c0.101,0,0.218-0.008,0.353-0.025
			c-0.007,0.027-0.018,0.063-0.035,0.108s-0.03,0.082-0.04,0.108c-0.01,0.027-0.018,0.06-0.025,0.098
			c-0.007,0.039-0.01,0.078-0.01,0.118c0,0.222,0.107,0.472,0.323,0.751c-0.255,0.007-0.507,0.029-0.756,0.068
			s-0.509,0.099-0.781,0.182c-0.272,0.082-0.516,0.202-0.731,0.358s-0.376,0.342-0.484,0.557c-0.124,0.249-0.187,0.476-0.187,0.68
			c0,0.225,0.05,0.429,0.151,0.612s0.23,0.333,0.388,0.449s0.34,0.213,0.547,0.292s0.412,0.135,0.615,0.169s0.404,0.05,0.602,0.05
			c0.901,0,1.606-0.22,2.117-0.66c0.47-0.41,0.706-0.884,0.706-1.422c0-0.192-0.028-0.37-0.083-0.537
			C10.789,71.714,10.716,71.571,10.627,71.452z M8.684,69.62c-0.171,0-0.334-0.044-0.489-0.131s-0.286-0.201-0.393-0.34
			c-0.107-0.14-0.202-0.297-0.282-0.472c-0.081-0.175-0.14-0.349-0.179-0.524s-0.058-0.341-0.058-0.499
			c0-0.323,0.086-0.6,0.257-0.832s0.413-0.348,0.726-0.348c0.222,0,0.423,0.069,0.602,0.207s0.321,0.312,0.423,0.524
			c0.102,0.212,0.181,0.431,0.237,0.658c0.055,0.227,0.083,0.441,0.083,0.643c0,0.336-0.073,0.606-0.219,0.809
			C9.246,69.518,9.01,69.62,8.684,69.62z M10.078,73.405c-0.092,0.158-0.218,0.281-0.375,0.37c-0.158,0.089-0.327,0.155-0.507,0.197
			s-0.369,0.063-0.567,0.063c-0.215,0-0.428-0.025-0.64-0.076c-0.212-0.05-0.414-0.127-0.607-0.229s-0.349-0.244-0.469-0.423
			c-0.119-0.18-0.179-0.384-0.179-0.612c0-0.202,0.045-0.381,0.136-0.539c0.091-0.158,0.207-0.284,0.348-0.378
			c0.141-0.094,0.306-0.171,0.494-0.232c0.188-0.061,0.37-0.103,0.544-0.126c0.175-0.024,0.353-0.035,0.534-0.035
			c0.111,0,0.195,0.003,0.252,0.01c0.02,0.014,0.071,0.049,0.154,0.106c0.082,0.057,0.138,0.096,0.166,0.116
			c0.029,0.02,0.081,0.059,0.156,0.116c0.076,0.057,0.129,0.1,0.161,0.129c0.032,0.029,0.078,0.071,0.139,0.129
			c0.06,0.057,0.105,0.107,0.134,0.149s0.064,0.093,0.106,0.154s0.071,0.119,0.088,0.174s0.033,0.116,0.048,0.181
			c0.015,0.066,0.023,0.134,0.023,0.204C10.216,73.063,10.17,73.247,10.078,73.405z"/>
		<polygon fill="#E6E6E6" points="12.898,67.402 12.898,66.112 12.253,66.112 12.253,67.402 10.962,67.402 10.962,68.047 
			12.253,68.047 12.253,69.338 12.898,69.338 12.898,68.047 14.188,68.047 14.188,67.402 		"/>
	</g>
</g>
<g>
	<path fill="#E6E6E6" d="M12.757,114.169c0,0.288,0.102,0.533,0.306,0.738c0.203,0.203,0.45,0.306,0.738,0.306
		s0.533-0.102,0.738-0.306c0.203-0.203,0.306-0.45,0.306-0.738c0-0.288-0.102-0.533-0.306-0.738
		c-0.203-0.203-0.45-0.306-0.738-0.306s-0.533,0.102-0.738,0.306C12.86,113.636,12.757,113.881,12.757,114.169z"/>
	<path fill="#E6E6E6" d="M15.733,104.935c-0.103-0.103-0.226-0.154-0.367-0.154H5.578c-0.005-0.038-0.018-0.107-0.037-0.207
		c-0.019-0.1-0.034-0.18-0.045-0.241c-0.011-0.06-0.031-0.131-0.061-0.215c-0.03-0.084-0.065-0.15-0.106-0.199
		c-0.041-0.049-0.095-0.091-0.162-0.126c-0.068-0.035-0.145-0.053-0.233-0.053H2.847c-0.141,0-0.264,0.051-0.367,0.154
		c-0.103,0.103-0.154,0.226-0.154,0.367s0.051,0.264,0.154,0.367c0.103,0.103,0.226,0.154,0.367,0.154h1.663l1.442,6.708
		c-0.011,0.022-0.066,0.125-0.167,0.31c-0.1,0.186-0.18,0.347-0.241,0.485c-0.06,0.138-0.089,0.246-0.089,0.322
		c0,0.141,0.051,0.264,0.154,0.367c0.103,0.103,0.226,0.154,0.367,0.154h0.521h7.302h0.521c0.141,0,0.264-0.051,0.367-0.154
		c0.103-0.103,0.154-0.226,0.154-0.367s-0.051-0.264-0.154-0.367c-0.103-0.103-0.226-0.154-0.367-0.154H6.825
		c0.13-0.261,0.196-0.435,0.196-0.521c0-0.054-0.007-0.114-0.02-0.179c-0.014-0.065-0.03-0.137-0.049-0.217
		c-0.019-0.079-0.031-0.137-0.037-0.175L15.424,110c0.135-0.016,0.248-0.074,0.334-0.175c0.087-0.1,0.13-0.217,0.13-0.347v-4.173
		C15.887,105.161,15.836,105.039,15.733,104.935z"/>
	<path fill="#E6E6E6" d="M5.454,114.169c0,0.288,0.102,0.533,0.306,0.738c0.204,0.203,0.45,0.306,0.738,0.306
		c0.288,0,0.533-0.102,0.738-0.306c0.203-0.203,0.306-0.45,0.306-0.738c0-0.288-0.102-0.533-0.306-0.738
		c-0.203-0.203-0.45-0.306-0.738-0.306c-0.288,0-0.533,0.102-0.738,0.306C5.557,113.636,5.454,113.881,5.454,114.169z"/>
</g>
<g>
	
		<radialGradient id="SVGID_1_" cx="284.208" cy="-179.528" r="2.6254" gradientTransform="matrix(1 0 0 -1 -247.6 -169.9)" gradientUnits="userSpaceOnUse">
		<stop  offset="0.0056" style="stop-color:#C4C6C8"/>
		<stop  offset="0.2978" style="stop-color:#BCBEC0"/>
		<stop  offset="0.6573" style="stop-color:#A7A9AC"/>
		<stop  offset="1" style="stop-color:#9B9DA0"/>
	</radialGradient>
	<path fill="url(#SVGID_1_)" d="M38.785,12.053c-0.422,0.285-0.992,0.428-1.711,0.428c-0.91,0-1.611-0.26-2.104-0.779
		s-0.738-1.211-0.738-2.074c0-1.125,0.365-1.939,1.096-2.443c0.406-0.273,0.859-0.41,1.359-0.41c0.773,0,1.359,0.262,1.758,0.785
		c0.336,0.449,0.516,1.039,0.539,1.77l-0.14,0.35h-3.668c0.008,0.648,0.182,1.151,0.521,1.509s0.793,0.536,1.359,0.536
		c0.43,0,0.922-0.115,1.477-0.346L38.785,12.053z M36.805,7.523c-0.543,0-0.949,0.164-1.219,0.492
		c-0.188,0.227-0.311,0.547-0.369,0.961h2.842c-0.035-0.426-0.162-0.775-0.381-1.049C37.455,7.658,37.164,7.523,36.805,7.523z"/>
	
		<radialGradient id="SVGID_2_" cx="290.8585" cy="-178.2" r="3.8988" gradientTransform="matrix(1 0 0 -1 -247.6 -169.9)" gradientUnits="userSpaceOnUse">
		<stop  offset="0.0056" style="stop-color:#C4C6C8"/>
		<stop  offset="0.2978" style="stop-color:#BCBEC0"/>
		<stop  offset="0.6573" style="stop-color:#A7A9AC"/>
		<stop  offset="1" style="stop-color:#9B9DA0"/>
	</radialGradient>
	<path fill="url(#SVGID_2_)" d="M39.664,8.297c0-0.824,0.17-1.551,0.51-2.18c0.336-0.629,0.824-1.119,1.465-1.471
		s1.391-0.527,2.25-0.527c0.738,0,1.275,0.06,1.611,0.179s0.583,0.221,0.741,0.305s0.362,0.206,0.612,0.366l-0.41,0.779
		c-0.836-0.539-1.68-0.809-2.531-0.809c-0.477,0-0.914,0.094-1.313,0.281c-0.762,0.355-1.293,0.961-1.594,1.816
		c-0.145,0.402-0.217,0.799-0.217,1.189c0,1.16,0.359,2.074,1.078,2.742c0.477,0.461,1.072,0.691,1.787,0.691h0.07
		c0.633,0,1.275-0.146,1.928-0.439V9.293h-1.74V8.479l2.801-0.006l-0.006,3.164c-0.832,0.563-1.848,0.844-3.047,0.844
		s-2.165-0.385-2.897-1.154S39.664,9.547,39.664,8.297z"/>
	
		<radialGradient id="SVGID_3_" cx="298.351" cy="-179.5265" r="2.7335" gradientTransform="matrix(1 0 0 -1 -247.6 -169.9)" gradientUnits="userSpaceOnUse">
		<stop  offset="0.0056" style="stop-color:#C4C6C8"/>
		<stop  offset="0.2978" style="stop-color:#BCBEC0"/>
		<stop  offset="0.6573" style="stop-color:#A7A9AC"/>
		<stop  offset="1" style="stop-color:#9B9DA0"/>
	</radialGradient>
	<path fill="url(#SVGID_3_)" d="M48.143,9.627c0-1.184,0.381-2.008,1.143-2.473c0.422-0.254,0.91-0.381,1.465-0.381
		c0.551,0,1.041,0.127,1.471,0.381c0.227,0.141,0.424,0.316,0.592,0.527c0.363,0.477,0.545,1.125,0.545,1.945
		c0,1.188-0.379,2.01-1.137,2.467c-0.422,0.258-0.912,0.387-1.471,0.387c-0.563,0-1.051-0.129-1.465-0.387
		c-0.23-0.137-0.43-0.313-0.598-0.527C48.324,11.102,48.143,10.455,48.143,9.627z M49.086,9.627c0,0.379,0.048,0.71,0.144,0.993
		s0.225,0.502,0.387,0.656s0.338,0.268,0.527,0.34s0.392,0.108,0.606,0.108c0.438,0,0.814-0.15,1.131-0.451
		c0.348-0.332,0.521-0.881,0.521-1.646c0-0.762-0.174-1.313-0.521-1.652c-0.32-0.297-0.697-0.445-1.131-0.445
		c-0.441,0-0.818,0.148-1.131,0.445C49.264,8.314,49.086,8.865,49.086,9.627z"/>
	
		<radialGradient id="SVGID_4_" cx="308.9555" cy="-178.201" r="4.0752" gradientTransform="matrix(1 0 0 -1 -247.6 -169.9)" gradientUnits="userSpaceOnUse">
		<stop  offset="0.0056" style="stop-color:#C4C6C8"/>
		<stop  offset="0.2978" style="stop-color:#BCBEC0"/>
		<stop  offset="0.6573" style="stop-color:#A7A9AC"/>
		<stop  offset="1" style="stop-color:#9B9DA0"/>
	</radialGradient>
	<path fill="url(#SVGID_4_)" d="M59.674,4.433c0.508-0.209,1.045-0.313,1.611-0.313c1.543,0,2.676,0.566,3.398,1.699
		c0.426,0.688,0.639,1.5,0.639,2.438c0,0.949-0.221,1.771-0.662,2.467c-0.469,0.75-1.102,1.262-1.898,1.535
		c-0.426,0.148-0.923,0.223-1.491,0.223s-1.108-0.108-1.62-0.325s-0.932-0.515-1.26-0.894c-0.668-0.785-1.002-1.787-1.002-3.006
		c0-1.203,0.344-2.189,1.031-2.959C58.748,4.93,59.166,4.642,59.674,4.433z M62.938,5.385C62.5,5.08,61.981,4.928,61.382,4.928
		s-1.12,0.146-1.562,0.439c-0.871,0.582-1.307,1.545-1.307,2.889c0,1.363,0.432,2.344,1.295,2.941
		c0.438,0.305,0.92,0.457,1.447,0.457c0.973,0,1.715-0.34,2.227-1.02c0.488-0.652,0.732-1.445,0.732-2.379
		C64.215,6.939,63.789,5.982,62.938,5.385z"/>
	
		<radialGradient id="SVGID_5_" cx="317.243" cy="-178.2" r="3.5794" gradientTransform="matrix(1 0 0 -1 -247.6 -169.9)" gradientUnits="userSpaceOnUse">
		<stop  offset="0.0056" style="stop-color:#C4C6C8"/>
		<stop  offset="0.2978" style="stop-color:#BCBEC0"/>
		<stop  offset="0.6573" style="stop-color:#A7A9AC"/>
		<stop  offset="1" style="stop-color:#9B9DA0"/>
	</radialGradient>
	<path fill="url(#SVGID_5_)" d="M72.646,4.225v8.15h-1.061L67.701,6.27v6.105H66.64v-8.15h1.061l3.885,6.111V4.225H72.646z"/>
	
		<radialGradient id="SVGID_6_" cx="324.685" cy="-178.2" r="3.3189" gradientTransform="matrix(1 0 0 -1 -247.6 -169.9)" gradientUnits="userSpaceOnUse">
		<stop  offset="0.0056" style="stop-color:#C4C6C8"/>
		<stop  offset="0.2978" style="stop-color:#BCBEC0"/>
		<stop  offset="0.6573" style="stop-color:#A7A9AC"/>
		<stop  offset="1" style="stop-color:#9B9DA0"/>
	</radialGradient>
	<path fill="url(#SVGID_6_)" d="M75.816,8.602v2.953h3.598v0.82h-4.658v-8.15h4.658v0.814h-3.598v2.742h2.449v0.82L75.816,8.602
		L75.816,8.602z"/>
</g>
</svg>
